<?xml version="1.0" encoding="UTF-8"?><svg id="Layer_1" xmlns="http://www.w3.org/2000/svg" viewBox="0 0 82.64 191.46"><defs><style>.cls-1,.cls-2,.cls-3,.cls-4{stroke-width:0px;}.cls-2{fill:#3ba73f;}.cls-3{fill:#3da9de;}.cls-4{fill:#e02a2c;}</style></defs><polygon class="cls-2" points="50.4 111.15 37.1 106.65 30.53 126.07 13.99 113.72 5.59 124.98 22.32 137.47 4.93 149.75 13.03 161.22 30.23 149.07 36.73 170.08 50.15 165.93 43.72 145.15 65.47 145.4 65.64 131.36 43.65 131.1 50.4 111.15"/><polygon class="cls-4" points="35.46 126.39 21.59 128.57 24.78 148.82 4.41 145.57 2.19 159.43 22.81 162.73 13.11 181.68 25.6 188.08 35.2 169.33 50.71 184.93 60.67 175.03 45.32 159.6 64.71 149.72 58.34 137.21 38.74 147.19 35.46 126.39"/><polygon class="cls-3" points="42.35 116.89 29 121.24 35.35 140.73 14.71 140.73 14.71 154.77 35.59 154.77 29 175.02 42.35 179.37 48.87 159.34 66.65 172.29 74.92 160.94 57.33 148.13 74.92 135.32 66.65 123.97 48.87 136.92 42.35 116.89"/><path class="cls-1" d="m67.94,88.78v10.86H14.2v-10.86h53.74Z"/><path class="cls-1" d="m57.08,44.55l9.48-.39c1.18,4.46,1.77,8.54,1.77,12.24,0,4.2-.55,8.08-1.65,11.65-1.1,3.57-2.79,6.71-5.06,9.42-2.27,2.71-5.08,4.8-8.44,6.26-3.36,1.46-7.23,2.18-11.61,2.18s-8.3-.66-11.76-1.97c-3.46-1.31-6.39-3.22-8.79-5.72-2.4-2.5-4.2-5.51-5.41-9.03-1.21-3.51-1.81-7.45-1.81-11.8,0-3.88.77-8.21,2.32-12.98l9.21.87c-1.94,3.54-2.91,7.38-2.91,11.53,0,3.51.75,6.61,2.26,9.28,1.51,2.68,3.61,4.73,6.31,6.16,2.7,1.43,5.81,2.14,9.32,2.14s6.92-.75,9.84-2.26c2.91-1.51,5.17-3.65,6.77-6.43,1.6-2.78,2.4-6.03,2.4-9.76s-.75-7.33-2.24-11.37Z"/><path class="cls-1" d="m59.16,9.03h8.77v32.14H14.2V9.34h8.85v20.97h12.98V11.11h8.77v19.2h14.36V9.03Z"/></svg>