<?xml version="1.0" encoding="UTF-8"?><svg id="Layer_1" xmlns="http://www.w3.org/2000/svg" viewBox="0 0 1543.91 399.48"><defs><style>.cls-1{fill:#94a4a5;}.cls-1,.cls-2,.cls-3{stroke-width:0px;}.cls-2{fill:#1d1d1b;}.cls-3{fill:#aeaeae;}</style></defs><path class="cls-2" d="m335.85,288.6h-31.81v-157.44h31.81v157.44Z"/><path class="cls-2" d="m472.5,256.79l1.15,27.78c-13.06,3.46-25.01,5.19-35.85,5.19-12.3,0-23.67-1.61-34.12-4.84-10.45-3.23-19.65-8.16-27.6-14.81-7.95-6.65-14.06-14.89-18.33-24.72-4.26-9.84-6.4-21.17-6.4-34s1.92-24.32,5.76-34.46c3.84-10.14,9.43-18.73,16.77-25.76,7.34-7.03,16.15-12.31,26.45-15.85,10.3-3.53,21.82-5.3,34.58-5.3,11.37,0,24.05,2.27,38.04,6.8l-2.54,26.97c-10.37-5.68-21.63-8.53-33.77-8.53-10.3,0-19.36,2.21-27.2,6.63-7.84,4.42-13.85,10.59-18.04,18.5-4.19,7.91-6.28,17.02-6.28,27.32s2.21,20.29,6.63,28.81c4.42,8.53,10.7,15.14,18.85,19.82,8.14,4.69,17.67,7.03,28.58,7.03s21.48-2.19,33.31-6.57Z"/><path class="cls-2" d="m575.39,262.9v25.7h-94.17v-157.44h93.25v25.93h-61.43v38.03h56.25v25.7h-56.25v42.07h62.36Z"/><path class="cls-2" d="m590.48,131.16h37.75c9.44,0,16.51.29,21.23.86,4.72.58,9.49,1.71,14.33,3.4,5.32,1.77,9.92,4.44,13.77,8.01s6.87,7.9,9.03,12.97c2.16,5.07,3.24,10.49,3.24,16.25,0,10.14-2.97,18.38-8.91,24.72-5.94,6.34-14.07,10.39-24.4,12.16,5.01,2.38,8.74,4.94,11.21,7.66,2.47,2.73,5.28,7.4,8.44,14l26.46,57.4h-25.77l-20.27-47.26c-3.07-7.07-5.76-12.12-8.06-15.16-2.3-3.03-5.12-5.07-8.46-6.11s-8.08-1.56-14.22-1.56h-12.9v70.08h-22.48v-157.44Zm22.48,19.36v48.64h13.92c26.53,0,39.8-8.18,39.8-24.55,0-9.84-3.47-16.31-10.41-19.42-6.94-3.11-15.97-4.67-27.08-4.67h-16.22Z"/><path class="cls-2" d="m799.18,131.16v19.36h-65.12v46.22h60.4v19.36h-60.4v53.36h66.97v19.13h-89.44v-157.44h87.6Z"/><path class="cls-2" d="m893.3,134.04l-2.77,19.82c-11.22-4.3-21.05-6.45-29.51-6.45-5.69,0-10.66.9-14.93,2.71-4.26,1.81-7.57,4.34-9.91,7.61-2.34,3.27-3.52,7.09-3.52,11.47,0,6.84,2.4,12.06,7.2,15.68,4.8,3.61,13.26,8.55,25.36,14.81,12.1,6.26,21.19,12.6,27.26,19.02,6.07,6.42,9.11,14.93,9.11,25.53,0,9.22-2.23,17.48-6.68,24.78-4.46,7.3-10.78,12.91-18.96,16.83-8.18,3.92-17.58,5.88-28.18,5.88-12.53,0-24.47-2.07-35.85-6.22l2.31-21.21c11.6,5.53,21.9,8.3,30.89,8.3,6.38,0,12.04-1.07,17-3.23,4.96-2.15,8.76-5.25,11.41-9.28,2.65-4.03,3.98-8.78,3.98-14.23,0-7.84-2.65-13.77-7.95-17.81-5.3-4.04-13.72-8.82-25.24-14.35-11.53-5.53-20.25-11.28-26.16-17.23-5.92-5.95-8.87-14.35-8.87-25.18,0-8.45,2.06-15.92,6.17-22.42s9.95-11.54,17.52-15.16c7.57-3.61,16.19-5.42,25.88-5.42,12.22,0,23.7,1.92,34.46,5.76Z"/><path class="cls-2" d="m1002.41,131.16v19.36h-65.12v46.22h60.4v19.36h-60.4v53.36h66.97v19.13h-89.44v-157.44h87.6Z"/><path class="cls-2" d="m1094.28,131.16l68.19,157.44h-25.34l-16.47-39.88h-76.48l-16.24,39.88h-24.3l67.03-157.44h23.61Zm18.54,98.43l-18.08-43.91c-3.61-8.38-6.3-14.96-8.06-19.77-1.77-4.8-3.34-9.93-4.72-15.39-1.15,4.23-2.51,8.43-4.09,12.62-1.57,4.19-4.63,11.85-9.16,22.99l-17.39,43.45h61.5Z"/><path class="cls-2" d="m1167.38,131.16h37.75c9.44,0,16.51.29,21.23.86,4.72.58,9.49,1.71,14.33,3.4,5.32,1.77,9.92,4.44,13.77,8.01,3.86,3.57,6.87,7.9,9.03,12.97,2.16,5.07,3.24,10.49,3.24,16.25,0,10.14-2.97,18.38-8.91,24.72-5.94,6.34-14.07,10.39-24.4,12.16,5.01,2.38,8.74,4.94,11.21,7.66,2.47,2.73,5.28,7.4,8.43,14l26.46,57.4h-25.77l-20.27-47.26c-3.07-7.07-5.76-12.12-8.06-15.16-2.3-3.03-5.12-5.07-8.46-6.11s-8.08-1.56-14.22-1.56h-12.9v70.08h-22.47v-157.44Zm22.47,19.36v48.64h13.92c26.53,0,39.8-8.18,39.8-24.55,0-9.84-3.47-16.31-10.41-19.42-6.94-3.11-15.97-4.67-27.08-4.67h-16.22Z"/><path class="cls-2" d="m1397.97,137.03l-1.84,21.55c-5.92-3.46-11.33-5.86-16.25-7.2-4.92-1.34-10.45-2.02-16.6-2.02-8.68,0-16.65,1.4-23.92,4.21-7.26,2.81-13.58,6.86-18.96,12.16-5.38,5.3-9.53,11.58-12.45,18.85-2.92,7.26-4.38,15.27-4.38,24.03,0,11.53,2.63,21.96,7.9,31.29,5.26,9.34,12.52,16.64,21.78,21.9,9.26,5.26,19.61,7.9,31.06,7.9,10.68,0,21.9-2.34,33.66-7.03l1.73,21.67c-6.15,2-11.74,3.4-16.77,4.21-5.03.81-11.01,1.21-17.92,1.21-16.52,0-31.26-3.19-44.2-9.57-12.95-6.38-23.07-15.66-30.37-27.84-7.3-12.18-10.95-26.61-10.95-43.28,0-15.21,3.48-28.81,10.43-40.8,6.95-11.99,16.75-21.32,29.39-28.01,12.64-6.68,26.91-10.03,42.82-10.03,13.75,0,25.7,2.27,35.85,6.8Z"/><path class="cls-2" d="m1530.25,131.16v157.44h-22.48v-72.27h-76.19v72.27h-22.47v-157.44h22.47v66.04h76.19v-66.04h22.48Z"/><path class="cls-3" d="m191.51,280.71l-42.13-59.18-43.01,59.02-58.53-42.57,42.85-59.73-70.55-21.43,24.06-68.43,70.07,21-1.81-73.26h73.74l.3,71.97,67.19-19.81,25.33,66.46-69.72,23.13,41,59.14-58.78,43.67Zm-113-47.68l23.02,16.74,48.06-65.95,46.83,65.78,23.61-17.54-45.63-65.82,75.82-25.16-9.87-25.89-75.77,22.34-.33-79.37h-29.2l2.01,81.06-79.04-23.69-9.45,26.88,77.96,23.68-48.01,66.93Z"/><path class="cls-1" d="m800.61,368.52c0,1.4.11,2.67.33,3.81.22,1.15.64,2.11,1.26,2.89.61.78,1.44,1.39,2.47,1.84,1.03.45,2.33.67,3.89.67,1.84,0,3.5-.6,4.98-1.8,1.48-1.2,2.22-3.05,2.22-5.56,0-1.34-.18-2.5-.54-3.47-.36-.97-.96-1.85-1.8-2.64-.84-.78-1.94-1.49-3.31-2.13-1.37-.64-3.06-1.3-5.06-1.97-2.68-.89-4.99-1.87-6.95-2.93-1.95-1.06-3.59-2.3-4.9-3.72-1.31-1.42-2.27-3.07-2.89-4.94-.61-1.87-.92-4.03-.92-6.49,0-5.91,1.65-10.32,4.94-13.23,3.29-2.9,7.81-4.35,13.56-4.35,2.68,0,5.15.29,7.41.88s4.21,1.53,5.86,2.85c1.65,1.31,2.93,2.99,3.85,5.02s1.38,4.48,1.38,7.32v1.67h-11.55c0-2.85-.5-5.03-1.51-6.57-1-1.53-2.68-2.3-5.02-2.3-1.34,0-2.46.2-3.35.59-.89.39-1.6.91-2.13,1.55-.53.64-.89,1.38-1.09,2.22-.2.84-.29,1.7-.29,2.59,0,1.84.39,3.39,1.17,4.65.78,1.26,2.46,2.41,5.02,3.47l9.29,4.02c2.29,1,4.16,2.05,5.61,3.14,1.45,1.09,2.61,2.26,3.47,3.52.86,1.26,1.46,2.64,1.8,4.14s.5,3.18.5,5.02c0,6.31-1.83,10.89-5.48,13.77-3.65,2.87-8.75,4.31-15.27,4.31s-11.68-1.48-14.61-4.44c-2.93-2.96-4.39-7.2-4.39-12.72v-2.43h12.05v1.76Z"/><path class="cls-1" d="m855.43,325.67c3.07,0,5.65.52,7.74,1.55s3.78,2.38,5.06,4.06,2.2,3.59,2.76,5.73c.56,2.15.84,4.34.84,6.57,0,3.07-.46,5.75-1.38,8.03-.92,2.29-2.2,4.16-3.85,5.61-1.65,1.45-3.64,2.54-5.98,3.26-2.34.73-4.94,1.09-7.78,1.09h-6.44v23.85h-12.05v-59.76h21.09Zm-3.68,27.03c2.4,0,4.34-.72,5.82-2.18,1.48-1.45,2.22-3.71,2.22-6.78s-.64-5.3-1.92-6.86c-1.28-1.56-3.43-2.34-6.44-2.34h-5.02v18.16h5.36Z"/><path class="cls-1" d="m877.15,343.04c.42-3.82,1.34-7.1,2.76-9.84,1.42-2.73,3.47-4.87,6.15-6.4,2.68-1.53,6.28-2.3,10.8-2.3s8.12.77,10.8,2.3c2.68,1.54,4.73,3.67,6.15,6.4,1.42,2.73,2.34,6.01,2.76,9.84s.63,7.99.63,12.51-.21,8.76-.63,12.55c-.42,3.8-1.34,7.06-2.76,9.79-1.42,2.73-3.47,4.83-6.15,6.28-2.68,1.45-6.28,2.18-10.8,2.18s-8.12-.73-10.8-2.18c-2.68-1.45-4.73-3.54-6.15-6.28-1.42-2.73-2.34-6-2.76-9.79-.42-3.79-.63-7.98-.63-12.55s.21-8.69.63-12.51Zm11.72,22.77c.2,2.82.59,5.11,1.17,6.86s1.42,3.04,2.51,3.85,2.52,1.21,4.31,1.21,3.22-.4,4.31-1.21,1.92-2.09,2.51-3.85c.59-1.76.98-4.04,1.17-6.86s.29-6.24.29-10.25-.1-7.42-.29-10.21-.59-5.08-1.17-6.86c-.59-1.78-1.42-3.08-2.51-3.89s-2.53-1.21-4.31-1.21-3.22.41-4.31,1.21-1.92,2.11-2.51,3.89c-.59,1.79-.98,4.07-1.17,6.86s-.29,6.19-.29,10.21.1,7.44.29,10.25Z"/><path class="cls-1" d="m952.77,366.6h.17v-40.93h11.05v59.76h-13.73l-14.73-41.85h-.17v41.85h-11.05v-59.76h13.89l14.56,40.93Z"/><path class="cls-1" d="m982.06,368.52c0,1.4.11,2.67.34,3.81.22,1.15.64,2.11,1.25,2.89s1.44,1.39,2.47,1.84c1.03.45,2.33.67,3.89.67,1.84,0,3.5-.6,4.98-1.8,1.48-1.2,2.22-3.05,2.22-5.56,0-1.34-.18-2.5-.54-3.47-.37-.97-.97-1.85-1.8-2.64-.84-.78-1.94-1.49-3.31-2.13-1.37-.64-3.06-1.3-5.06-1.97-2.68-.89-4.99-1.87-6.95-2.93-1.95-1.06-3.58-2.3-4.9-3.72-1.31-1.42-2.27-3.07-2.89-4.94-.61-1.87-.92-4.03-.92-6.49,0-5.91,1.64-10.32,4.94-13.23,3.29-2.9,7.81-4.35,13.56-4.35,2.68,0,5.15.29,7.41.88s4.21,1.53,5.86,2.85,2.93,2.99,3.85,5.02c.92,2.04,1.38,4.48,1.38,7.32v1.67h-11.55c0-2.85-.5-5.03-1.51-6.57-1.01-1.53-2.68-2.3-5.02-2.3-1.34,0-2.46.2-3.35.59-.89.39-1.6.91-2.13,1.55-.53.64-.89,1.38-1.09,2.22-.2.84-.3,1.7-.3,2.59,0,1.84.39,3.39,1.17,4.65.78,1.26,2.45,2.41,5.02,3.47l9.29,4.02c2.29,1,4.15,2.05,5.6,3.14,1.45,1.09,2.61,2.26,3.47,3.52s1.47,2.64,1.8,4.14c.34,1.51.5,3.18.5,5.02,0,6.31-1.83,10.89-5.48,13.77-3.66,2.87-8.75,4.31-15.27,4.31s-11.68-1.48-14.61-4.44c-2.93-2.96-4.39-7.2-4.39-12.72v-2.43h12.05v1.76Z"/><path class="cls-1" d="m1049.19,335.55h-21.34v14.06h20.09v9.88h-20.09v16.07h22.18v9.88h-34.23v-59.76h33.4v9.88Z"/><path class="cls-1" d="m1078.31,325.67c5.02,0,8.93,1.27,11.72,3.81,2.79,2.54,4.18,6.4,4.18,11.59,0,4.02-.81,7.3-2.43,9.83-1.62,2.54-4.13,4.17-7.53,4.9v.17c3.01.45,5.22,1.42,6.61,2.93s2.26,3.93,2.59,7.28c.11,1.12.2,2.33.25,3.64.06,1.31.11,2.78.17,4.39.11,3.18.28,5.61.5,7.28.34,1.67,1.06,2.82,2.18,3.43v.5h-13.06c-.61-.84-1-1.8-1.17-2.89-.17-1.09-.28-2.22-.34-3.39l-.34-11.47c-.11-2.34-.7-4.19-1.76-5.52-1.06-1.34-2.85-2.01-5.36-2.01h-6.45v25.28h-12.05v-59.76h22.26Zm-5.19,26.11c2.9,0,5.13-.68,6.7-2.05,1.56-1.37,2.34-3.67,2.34-6.9,0-5.52-2.79-8.29-8.37-8.29h-5.69v17.24h5.02Z"/><path class="cls-1" d="m1135.98,335.55h-21.34v14.06h20.09v9.88h-20.09v16.07h22.18v9.88h-34.23v-59.76h33.4v9.88Z"/><path class="cls-1" d="m1163.18,325.67c4.19,0,7.56.68,10.13,2.05,2.57,1.37,4.56,3.32,5.98,5.86,1.42,2.54,2.39,5.6,2.89,9.17.5,3.57.75,7.56.75,11.97,0,5.25-.32,9.81-.96,13.68-.64,3.88-1.74,7.07-3.31,9.58-1.56,2.51-3.66,4.38-6.28,5.61-2.62,1.23-5.94,1.84-9.96,1.84h-19v-59.76h19.75Zm-2.34,50.89c2.12,0,3.82-.36,5.11-1.09,1.28-.72,2.3-1.92,3.05-3.6s1.26-3.88,1.51-6.61c.25-2.73.38-6.14.38-10.21,0-3.4-.11-6.39-.33-8.95-.22-2.57-.68-4.7-1.38-6.4s-1.73-2.98-3.1-3.85c-1.37-.86-3.2-1.3-5.48-1.3h-5.11v42.02h5.36Z"/><path class="cls-1" d="m1231.14,325.67c2.46,0,4.73.25,6.82.75,2.09.5,3.89,1.34,5.4,2.51,1.51,1.17,2.68,2.73,3.52,4.69.84,1.95,1.26,4.35,1.26,7.2,0,3.24-.75,6.01-2.26,8.33-1.51,2.32-3.77,3.89-6.78,4.73v.17c3.35.45,6,1.87,7.95,4.27,1.95,2.4,2.93,5.61,2.93,9.62,0,2.34-.31,4.58-.92,6.7-.61,2.12-1.66,3.98-3.14,5.56-1.48,1.59-3.4,2.86-5.78,3.81-2.37.95-5.31,1.42-8.83,1.42h-20.34v-59.76h20.17Zm-4.69,24.52c3.35,0,5.79-.6,7.32-1.8,1.53-1.2,2.3-3.22,2.3-6.07s-.7-4.85-2.09-6.03c-1.4-1.17-3.6-1.76-6.61-1.76h-4.35v15.65h3.43Zm1.25,26.36c2.9,0,5.25-.64,7.03-1.92,1.78-1.28,2.68-3.65,2.68-7.11,0-1.73-.24-3.17-.71-4.31-.48-1.14-1.12-2.06-1.92-2.76-.81-.7-1.77-1.19-2.89-1.47-1.12-.28-2.34-.42-3.68-.42h-5.19v18h4.69Z"/><path class="cls-1" d="m1274.99,348.77h.17l8.37-23.1h13.06l-15.48,36.24v23.52h-12.05v-23.52l-15.48-36.24h13.56l7.87,23.1Z"/><path class="cls-1" d="m1345.09,336.34c-1.03-1.98-2.92-2.97-5.65-2.97-1.51,0-2.75.41-3.72,1.21-.98.81-1.74,2.12-2.3,3.93-.56,1.81-.95,4.18-1.17,7.11-.22,2.93-.33,6.52-.33,10.76,0,4.52.15,8.17.46,10.96.31,2.79.78,4.95,1.42,6.49.64,1.54,1.45,2.57,2.43,3.1.97.53,2.1.79,3.39.79,1.06,0,2.05-.18,2.97-.54.92-.36,1.72-1.09,2.39-2.18.67-1.09,1.2-2.62,1.59-4.6.39-1.98.59-4.59.59-7.82h12.05c0,3.24-.25,6.31-.75,9.21-.5,2.9-1.44,5.44-2.8,7.62-1.37,2.18-3.29,3.88-5.78,5.11s-5.71,1.84-9.67,1.84c-4.52,0-8.12-.73-10.8-2.18-2.68-1.45-4.73-3.54-6.15-6.28-1.42-2.73-2.34-6-2.76-9.79-.42-3.79-.63-7.98-.63-12.55s.21-8.69.63-12.51,1.34-7.1,2.76-9.84c1.42-2.73,3.47-4.87,6.15-6.4,2.68-1.53,6.28-2.3,10.8-2.3s7.68.7,10.17,2.09c2.48,1.4,4.34,3.17,5.56,5.31,1.23,2.15,2,4.47,2.3,6.95.31,2.48.46,4.81.46,6.99h-12.05c0-4.35-.52-7.52-1.55-9.5Z"/><path class="cls-1" d="m1383.46,369.86h.25l8.87-44.19h12.47l-13.73,59.76h-15.48l-13.73-59.76h12.89l8.45,44.19Z"/><path class="cls-1" d="m1442.89,335.55h-21.34v14.06h20.09v9.88h-20.09v16.07h22.18v9.88h-34.23v-59.76h33.4v9.88Z"/><path class="cls-1" d="m1478.2,366.6h.17v-40.93h11.05v59.76h-13.73l-14.73-41.85h-.17v41.85h-11.05v-59.76h13.89l14.56,40.93Z"/><path class="cls-1" d="m1532.77,335.55h-13.06v49.88h-12.05v-49.88h-13.06v-9.88h38.17v9.88Z"/></svg>