<?xml version="1.0" encoding="UTF-8"?><svg id="Layer_1" xmlns="http://www.w3.org/2000/svg" viewBox="0 0 1543.91 399.48"><defs><style>.cls-1{fill:#94a4a5;}.cls-1,.cls-2,.cls-3{stroke-width:0px;}.cls-2{fill:#1d1d1b;}.cls-3{fill:#aeaeae;}</style></defs><path class="cls-2" d="m332.61,277.15h-31.81V119.71h31.81v157.44Z"/><path class="cls-2" d="m469.27,245.34l1.15,27.78c-13.06,3.46-25.01,5.19-35.85,5.19-12.3,0-23.67-1.61-34.12-4.84-10.45-3.23-19.65-8.16-27.6-14.81-7.95-6.65-14.06-14.89-18.33-24.72s-6.4-21.17-6.4-34,1.92-24.32,5.76-34.46c3.84-10.14,9.43-18.73,16.77-25.76,7.34-7.03,16.15-12.31,26.45-15.85,10.3-3.53,21.82-5.3,34.58-5.3,11.37,0,24.05,2.27,38.04,6.8l-2.54,26.97c-10.37-5.68-21.63-8.53-33.77-8.53-10.3,0-19.36,2.21-27.2,6.63-7.84,4.42-13.85,10.59-18.04,18.5-4.19,7.91-6.28,17.02-6.28,27.32s2.21,20.29,6.63,28.81c4.42,8.53,10.7,15.14,18.85,19.82,8.14,4.69,17.67,7.03,28.58,7.03s21.48-2.19,33.31-6.57Z"/><path class="cls-2" d="m572.15,251.45v25.7h-94.17V119.71h93.25v25.93h-61.43v38.03h56.25v25.7h-56.25v42.07h62.36Z"/><path class="cls-2" d="m587.25,119.71h37.75c9.44,0,16.51.29,21.23.86,4.72.58,9.49,1.71,14.33,3.4,5.32,1.77,9.92,4.44,13.77,8.01s6.87,7.9,9.03,12.97c2.16,5.07,3.24,10.49,3.24,16.25,0,10.14-2.97,18.38-8.91,24.72-5.94,6.34-14.07,10.39-24.4,12.16,5.01,2.38,8.74,4.94,11.21,7.66,2.47,2.73,5.28,7.4,8.44,14l26.46,57.4h-25.77l-20.27-47.26c-3.07-7.07-5.76-12.12-8.06-15.16-2.3-3.03-5.12-5.07-8.46-6.11s-8.08-1.56-14.22-1.56h-12.9v70.08h-22.48V119.71Zm22.48,19.36v48.64h13.92c26.53,0,39.8-8.18,39.8-24.55,0-9.84-3.47-16.31-10.41-19.42-6.94-3.11-15.97-4.67-27.08-4.67h-16.22Z"/><path class="cls-2" d="m795.94,119.71v19.36h-65.12v46.22h60.4v19.36h-60.4v53.36h66.97v19.13h-89.44V119.71h87.6Z"/><path class="cls-2" d="m890.06,122.59l-2.77,19.82c-11.22-4.3-21.05-6.45-29.51-6.45-5.69,0-10.66.9-14.93,2.71-4.26,1.81-7.57,4.34-9.91,7.61-2.34,3.27-3.52,7.09-3.52,11.47,0,6.84,2.4,12.06,7.2,15.68,4.8,3.61,13.26,8.55,25.36,14.81,12.1,6.26,21.19,12.6,27.26,19.02,6.07,6.42,9.11,14.93,9.11,25.53,0,9.22-2.23,17.48-6.68,24.78-4.46,7.3-10.78,12.91-18.96,16.83-8.18,3.92-17.58,5.88-28.18,5.88-12.53,0-24.47-2.07-35.85-6.22l2.31-21.21c11.6,5.53,21.9,8.3,30.89,8.3,6.38,0,12.04-1.07,17-3.23,4.96-2.15,8.76-5.25,11.41-9.28,2.65-4.03,3.98-8.78,3.98-14.23,0-7.84-2.65-13.77-7.95-17.81-5.3-4.04-13.72-8.82-25.24-14.35s-20.25-11.28-26.16-17.23c-5.92-5.95-8.87-14.35-8.87-25.18,0-8.45,2.06-15.92,6.17-22.42s9.95-11.54,17.52-15.16c7.57-3.61,16.19-5.42,25.88-5.42,12.22,0,23.7,1.92,34.46,5.76Z"/><path class="cls-2" d="m999.17,119.71v19.36h-65.12v46.22h60.4v19.36h-60.4v53.36h66.97v19.13h-89.44V119.71h87.6Z"/><path class="cls-2" d="m1091.04,119.71l68.19,157.44h-25.34l-16.47-39.88h-76.48l-16.24,39.88h-24.3l67.03-157.44h23.61Zm18.54,98.43l-18.08-43.91c-3.61-8.38-6.3-14.96-8.06-19.77-1.77-4.8-3.34-9.93-4.72-15.39-1.15,4.23-2.51,8.43-4.09,12.62-1.57,4.19-4.63,11.85-9.16,22.99l-17.39,43.45h61.5Z"/><path class="cls-2" d="m1164.14,119.71h37.75c9.44,0,16.51.29,21.23.86,4.72.58,9.49,1.71,14.33,3.4,5.32,1.77,9.92,4.44,13.77,8.01,3.86,3.57,6.87,7.9,9.03,12.97s3.24,10.49,3.24,16.25c0,10.14-2.97,18.38-8.91,24.72-5.94,6.34-14.07,10.39-24.4,12.16,5.01,2.38,8.74,4.94,11.21,7.66,2.47,2.73,5.28,7.4,8.43,14l26.46,57.4h-25.77l-20.27-47.26c-3.07-7.07-5.76-12.12-8.06-15.16-2.3-3.03-5.12-5.07-8.46-6.11s-8.08-1.56-14.22-1.56h-12.9v70.08h-22.47V119.71Zm22.47,19.36v48.64h13.92c26.53,0,39.8-8.18,39.8-24.55,0-9.84-3.47-16.31-10.41-19.42-6.94-3.11-15.97-4.67-27.08-4.67h-16.22Z"/><path class="cls-2" d="m1394.73,125.59l-1.84,21.55c-5.92-3.46-11.33-5.86-16.25-7.2-4.92-1.34-10.45-2.02-16.6-2.02-8.68,0-16.65,1.4-23.92,4.21-7.26,2.81-13.58,6.86-18.96,12.16-5.38,5.3-9.53,11.58-12.45,18.85-2.92,7.26-4.38,15.27-4.38,24.03,0,11.53,2.63,21.96,7.9,31.29,5.26,9.34,12.52,16.64,21.78,21.9,9.26,5.26,19.61,7.9,31.06,7.9,10.68,0,21.9-2.34,33.66-7.03l1.73,21.67c-6.15,2-11.74,3.4-16.77,4.21-5.03.81-11.01,1.21-17.92,1.21-16.52,0-31.26-3.19-44.2-9.57-12.95-6.38-23.07-15.66-30.37-27.84-7.3-12.18-10.95-26.61-10.95-43.28,0-15.21,3.48-28.81,10.43-40.8,6.95-11.99,16.75-21.32,29.39-28.01,12.64-6.68,26.91-10.03,42.82-10.03,13.75,0,25.7,2.27,35.85,6.8Z"/><path class="cls-2" d="m1527.01,119.71v157.44h-22.48v-72.27h-76.19v72.27h-22.47V119.71h22.47v66.04h76.19v-66.04h22.48Z"/><path class="cls-3" d="m188.27,269.26l-42.13-59.18-43.01,59.02-58.53-42.57,42.85-59.73-70.55-21.43,24.06-68.43,70.07,21-1.81-73.26h73.74l.3,71.97,67.19-19.81,25.33,66.46-69.72,23.13,41,59.14-58.78,43.67Zm-113-47.68l23.02,16.74,48.06-65.95,46.83,65.78,23.61-17.54-45.63-65.82,75.82-25.16-9.87-25.89-75.77,22.34-.33-79.37h-29.2l2.01,81.06-79.04-23.69-9.45,26.88,77.96,23.68-48.01,66.93Z"/><path class="cls-1" d="m796.14,357.16c0,1.38.11,2.64.33,3.77.22,1.13.63,2.08,1.24,2.86.61.77,1.42,1.38,2.44,1.82,1.02.44,2.3.66,3.85.66,1.82,0,3.46-.59,4.93-1.78,1.46-1.19,2.19-3.02,2.19-5.51,0-1.32-.18-2.47-.54-3.44-.36-.97-.95-1.83-1.78-2.61-.83-.77-1.92-1.48-3.27-2.11-1.35-.63-3.02-1.28-5.01-1.95-2.65-.88-4.94-1.85-6.87-2.9-1.93-1.05-3.55-2.28-4.84-3.69-1.3-1.41-2.25-3.04-2.86-4.89-.61-1.85-.91-3.99-.91-6.42,0-5.85,1.63-10.21,4.89-13.08,3.26-2.87,7.73-4.31,13.41-4.31,2.65,0,5.09.29,7.33.87,2.24.58,4.17,1.52,5.8,2.82,1.63,1.3,2.9,2.95,3.81,4.97.91,2.02,1.37,4.43,1.37,7.25v1.66h-11.43c0-2.82-.5-4.98-1.49-6.5-.99-1.52-2.65-2.28-4.97-2.28-1.33,0-2.43.19-3.31.58-.88.39-1.59.9-2.11,1.53-.53.64-.88,1.37-1.08,2.19-.19.83-.29,1.68-.29,2.57,0,1.82.39,3.35,1.16,4.6.77,1.24,2.43,2.39,4.97,3.44l9.19,3.97c2.26.99,4.11,2.03,5.55,3.11,1.43,1.08,2.58,2.24,3.44,3.48.85,1.24,1.45,2.61,1.78,4.1.33,1.49.5,3.15.5,4.97,0,6.24-1.81,10.78-5.42,13.62-3.62,2.84-8.65,4.26-15.11,4.26s-11.55-1.46-14.45-4.39c-2.9-2.93-4.35-7.12-4.35-12.59v-2.4h11.92v1.74Z"/><path class="cls-1" d="m850.38,314.76c3.04,0,5.59.51,7.66,1.53,2.07,1.02,3.74,2.36,5.01,4.02,1.27,1.66,2.18,3.55,2.73,5.67.55,2.13.83,4.29.83,6.5,0,3.04-.46,5.69-1.37,7.95-.91,2.26-2.18,4.11-3.81,5.55-1.63,1.44-3.6,2.51-5.92,3.23-2.32.72-4.89,1.08-7.7,1.08h-6.38v23.6h-11.92v-59.12h20.87Zm-3.64,26.75c2.37,0,4.29-.72,5.75-2.15,1.46-1.44,2.19-3.67,2.19-6.71s-.63-5.24-1.9-6.79c-1.27-1.54-3.4-2.32-6.38-2.32h-4.97v17.97h5.3Z"/><path class="cls-1" d="m871.86,331.95c.41-3.78,1.32-7.02,2.73-9.73,1.41-2.7,3.44-4.82,6.09-6.33,2.65-1.52,6.21-2.28,10.68-2.28s8.03.76,10.68,2.28c2.65,1.52,4.68,3.63,6.09,6.33,1.41,2.71,2.32,5.95,2.73,9.73.41,3.78.62,7.91.62,12.38s-.21,8.67-.62,12.42c-.41,3.75-1.33,6.98-2.73,9.69-1.41,2.71-3.44,4.78-6.09,6.21-2.65,1.44-6.21,2.15-10.68,2.15s-8.03-.72-10.68-2.15c-2.65-1.43-4.68-3.5-6.09-6.21-1.41-2.7-2.32-5.93-2.73-9.69-.41-3.75-.62-7.89-.62-12.42s.21-8.6.62-12.38Zm11.59,22.52c.19,2.79.58,5.05,1.16,6.79.58,1.74,1.41,3.01,2.48,3.81,1.08.8,2.5,1.2,4.26,1.2s3.19-.4,4.26-1.2c1.08-.8,1.9-2.07,2.48-3.81.58-1.74.97-4,1.16-6.79.19-2.79.29-6.17.29-10.14s-.1-7.34-.29-10.1c-.19-2.76-.58-5.02-1.16-6.79-.58-1.77-1.41-3.05-2.48-3.85-1.08-.8-2.5-1.2-4.26-1.2s-3.19.4-4.26,1.2c-1.08.8-1.9,2.08-2.48,3.85-.58,1.77-.97,4.03-1.16,6.79-.19,2.76-.29,6.13-.29,10.1s.1,7.36.29,10.14Z"/><path class="cls-1" d="m946.68,355.26h.17v-40.49h10.93v59.12h-13.58l-14.57-41.4h-.17v41.4h-10.93v-59.12h13.75l14.41,40.49Z"/><path class="cls-1" d="m975.66,357.16c0,1.38.11,2.64.33,3.77.22,1.13.63,2.08,1.24,2.86.61.77,1.42,1.38,2.44,1.82,1.02.44,2.3.66,3.85.66,1.82,0,3.46-.59,4.93-1.78,1.46-1.19,2.2-3.02,2.2-5.51,0-1.32-.18-2.47-.54-3.44-.36-.97-.95-1.83-1.78-2.61-.83-.77-1.92-1.48-3.27-2.11-1.35-.63-3.02-1.28-5.01-1.95-2.65-.88-4.94-1.85-6.87-2.9-1.93-1.05-3.55-2.28-4.84-3.69-1.3-1.41-2.25-3.04-2.86-4.89-.61-1.85-.91-3.99-.91-6.42,0-5.85,1.63-10.21,4.89-13.08,3.26-2.87,7.73-4.31,13.42-4.31,2.65,0,5.09.29,7.33.87,2.24.58,4.17,1.52,5.8,2.82,1.63,1.3,2.9,2.95,3.81,4.97.91,2.02,1.37,4.43,1.37,7.25v1.66h-11.43c0-2.82-.5-4.98-1.49-6.5-.99-1.52-2.65-2.28-4.97-2.28-1.33,0-2.43.19-3.31.58-.88.39-1.59.9-2.11,1.53-.53.64-.88,1.37-1.08,2.19-.19.83-.29,1.68-.29,2.57,0,1.82.39,3.35,1.16,4.6.77,1.24,2.43,2.39,4.97,3.44l9.19,3.97c2.26.99,4.11,2.03,5.55,3.11,1.43,1.08,2.58,2.24,3.44,3.48.86,1.24,1.45,2.61,1.78,4.1.33,1.49.5,3.15.5,4.97,0,6.24-1.81,10.78-5.42,13.62-3.62,2.84-8.65,4.26-15.11,4.26s-11.55-1.46-14.45-4.39c-2.9-2.93-4.35-7.12-4.35-12.59v-2.4h11.92v1.74Z"/><path class="cls-1" d="m1008.41,331.95c.41-3.78,1.32-7.02,2.73-9.73,1.41-2.7,3.44-4.82,6.09-6.33,2.65-1.52,6.21-2.28,10.68-2.28s8.03.76,10.68,2.28c2.65,1.52,4.68,3.63,6.09,6.33,1.41,2.71,2.32,5.95,2.73,9.73.41,3.78.62,7.91.62,12.38s-.21,8.67-.62,12.42c-.41,3.75-1.33,6.98-2.73,9.69-1.41,2.71-3.44,4.78-6.09,6.21-2.65,1.44-6.21,2.15-10.68,2.15s-8.03-.72-10.68-2.15c-2.65-1.43-4.68-3.5-6.09-6.21-1.41-2.7-2.32-5.93-2.73-9.69-.41-3.75-.62-7.89-.62-12.42s.21-8.6.62-12.38Zm11.59,22.52c.19,2.79.58,5.05,1.16,6.79.58,1.74,1.41,3.01,2.48,3.81,1.08.8,2.5,1.2,4.26,1.2s3.19-.4,4.26-1.2c1.08-.8,1.9-2.07,2.48-3.81.58-1.74.97-4,1.16-6.79.19-2.79.29-6.17.29-10.14s-.1-7.34-.29-10.1c-.19-2.76-.58-5.02-1.16-6.79-.58-1.77-1.41-3.05-2.48-3.85-1.08-.8-2.5-1.2-4.26-1.2s-3.19.4-4.26,1.2c-1.08.8-1.9,2.08-2.48,3.85-.58,1.77-.97,4.03-1.16,6.79-.19,2.76-.29,6.13-.29,10.1s.1,7.36.29,10.14Z"/><path class="cls-1" d="m1077.1,314.76c4.97,0,8.83,1.26,11.59,3.77,2.76,2.51,4.14,6.33,4.14,11.47,0,3.98-.8,7.22-2.4,9.73-1.6,2.51-4.09,4.13-7.45,4.84v.17c2.98.44,5.16,1.41,6.54,2.9,1.38,1.49,2.24,3.89,2.57,7.2.11,1.1.19,2.31.25,3.6.05,1.3.11,2.75.17,4.35.11,3.15.28,5.55.5,7.2.33,1.66,1.05,2.79,2.15,3.4v.5h-12.92c-.61-.83-.99-1.78-1.16-2.86-.17-1.08-.28-2.19-.33-3.35l-.33-11.34c-.11-2.32-.69-4.14-1.74-5.46-1.05-1.33-2.82-1.99-5.3-1.99h-6.38v25.01h-11.92v-59.12h22.03Zm-5.13,25.84c2.87,0,5.08-.68,6.62-2.03,1.54-1.35,2.32-3.63,2.32-6.83,0-5.47-2.76-8.2-8.28-8.2h-5.63v17.06h4.97Z"/><path class="cls-1" d="m1134.15,324.54h-21.12v13.91h19.87v9.77h-19.87v15.9h21.94v9.77h-33.87v-59.12h33.04v9.77Z"/><path class="cls-1" d="m1161.06,314.76c4.14,0,7.48.68,10.02,2.03,2.54,1.35,4.51,3.29,5.92,5.8,1.41,2.51,2.36,5.54,2.86,9.07.5,3.53.75,7.48.75,11.84,0,5.19-.32,9.7-.95,13.54-.64,3.84-1.73,7-3.27,9.48-1.55,2.48-3.62,4.33-6.21,5.55-2.6,1.21-5.88,1.82-9.85,1.82h-18.8v-59.12h19.54Zm-2.32,50.35c2.1,0,3.78-.36,5.05-1.08,1.27-.72,2.28-1.9,3.02-3.56.75-1.66,1.24-3.84,1.49-6.54.25-2.7.37-6.07.37-10.1,0-3.37-.11-6.32-.33-8.86-.22-2.54-.68-4.65-1.37-6.33-.69-1.68-1.71-2.95-3.06-3.81-1.35-.85-3.16-1.28-5.42-1.28h-5.05v41.57h5.3Z"/><path class="cls-1" d="m1228.3,314.76c2.43,0,4.68.25,6.75.75,2.07.5,3.85,1.33,5.34,2.48s2.65,2.71,3.48,4.64c.83,1.93,1.24,4.31,1.24,7.12,0,3.2-.75,5.95-2.24,8.24-1.49,2.29-3.73,3.85-6.71,4.68v.17c3.31.44,5.93,1.85,7.87,4.22,1.93,2.37,2.9,5.55,2.9,9.52,0,2.32-.3,4.53-.91,6.62-.61,2.1-1.64,3.93-3.11,5.51-1.46,1.57-3.37,2.83-5.71,3.77-2.35.94-5.26,1.41-8.74,1.41h-20.12v-59.12h19.96Zm-4.64,24.26c3.31,0,5.73-.59,7.25-1.78,1.52-1.19,2.28-3.19,2.28-6s-.69-4.8-2.07-5.96c-1.38-1.16-3.56-1.74-6.54-1.74h-4.31v15.48h3.4Zm1.24,26.08c2.87,0,5.19-.63,6.96-1.9,1.77-1.27,2.65-3.61,2.65-7.04,0-1.71-.24-3.13-.7-4.26-.47-1.13-1.11-2.04-1.9-2.73-.8-.69-1.75-1.17-2.86-1.45-1.1-.28-2.32-.41-3.64-.41h-5.13v17.8h4.64Z"/><path class="cls-1" d="m1271.69,337.62h.17l8.28-22.85h12.92l-15.32,35.86v23.27h-11.92v-23.27l-15.32-35.86h13.42l7.78,22.85Z"/><path class="cls-1" d="m1341.04,325.32c-1.02-1.96-2.88-2.94-5.59-2.94-1.49,0-2.72.4-3.69,1.2-.97.8-1.73,2.1-2.28,3.89-.55,1.79-.94,4.14-1.16,7.04-.22,2.9-.33,6.45-.33,10.64,0,4.47.15,8.09.46,10.85.3,2.76.77,4.9,1.41,6.42.63,1.52,1.43,2.54,2.4,3.06.96.53,2.08.79,3.35.79,1.05,0,2.03-.18,2.94-.54.91-.36,1.7-1.08,2.36-2.15.66-1.08,1.19-2.59,1.57-4.55.39-1.96.58-4.54.58-7.74h11.92c0,3.2-.25,6.24-.75,9.11-.5,2.87-1.42,5.38-2.77,7.54-1.35,2.15-3.26,3.84-5.71,5.05-2.46,1.21-5.64,1.82-9.56,1.82-4.47,0-8.03-.72-10.68-2.15-2.65-1.43-4.68-3.5-6.09-6.21-1.41-2.7-2.32-5.93-2.73-9.69-.41-3.75-.62-7.89-.62-12.42s.21-8.6.62-12.38c.41-3.78,1.32-7.02,2.73-9.73,1.41-2.7,3.44-4.82,6.09-6.33,2.65-1.52,6.21-2.28,10.68-2.28s7.6.69,10.06,2.07c2.46,1.38,4.29,3.13,5.51,5.26,1.21,2.13,1.97,4.42,2.28,6.87.3,2.46.46,4.76.46,6.91h-11.92c0-4.31-.51-7.44-1.53-9.4Z"/><path class="cls-1" d="m1379.01,358.49h.25l8.78-43.72h12.34l-13.58,59.12h-15.32l-13.58-59.12h12.75l8.36,43.72Z"/><path class="cls-1" d="m1437.8,324.54h-21.12v13.91h19.87v9.77h-19.87v15.9h21.94v9.77h-33.87v-59.12h33.04v9.77Z"/><path class="cls-1" d="m1472.74,355.26h.17v-40.49h10.93v59.12h-13.58l-14.57-41.4h-.17v41.4h-10.93v-59.12h13.75l14.41,40.49Z"/><path class="cls-1" d="m1526.73,324.54h-12.92v49.35h-11.92v-49.35h-12.92v-9.77h37.76v9.77Z"/></svg>