<?xml version="1.0" encoding="UTF-8"?><svg id="Layer_1" xmlns="http://www.w3.org/2000/svg" viewBox="0 0 365.48 1428.91"><defs><style>.cls-1{fill:#94a4a5;}.cls-1,.cls-2,.cls-3{stroke-width:0px;}.cls-2{fill:#1d1d1b;}.cls-3{fill:#aeaeae;}</style></defs><path class="cls-2" d="m233.76,1136.6v29.45H87.99v-29.45h145.78Z"/><path class="cls-2" d="m204.31,1010.07l25.72-1.07c3.2,12.1,4.8,23.16,4.8,33.19,0,11.38-1.49,21.91-4.48,31.59-2.99,9.68-7.56,18.2-13.71,25.56-6.15,7.36-13.78,13.02-22.89,16.97s-19.6,5.92-31.48,5.92-22.52-1.78-31.91-5.34c-9.39-3.56-17.34-8.73-23.85-15.53-6.51-6.79-11.4-14.96-14.67-24.49-3.27-9.53-4.91-20.2-4.91-32.02,0-10.53,2.1-22.27,6.3-35.22l24.97,2.35c-5.26,9.6-7.9,20.03-7.9,31.27,0,9.53,2.05,17.93,6.14,25.19,4.09,7.26,9.8,12.82,17.13,16.7,7.33,3.88,15.76,5.82,25.29,5.82s18.78-2.04,26.68-6.14c7.9-4.09,14.02-9.91,18.36-17.45,4.34-7.54,6.51-16.36,6.51-26.47s-2.03-19.89-6.08-30.84Z"/><path class="cls-2" d="m209.97,914.8h23.8v87.19H87.99v-86.34h24.01v56.88h35.22v-52.08h23.8v52.08h38.95v-57.74Z"/><path class="cls-2" d="m87.99,900.83v-34.95c0-8.74.27-15.29.8-19.66.53-4.37,1.58-8.79,3.15-13.27,1.64-4.93,4.11-9.18,7.42-12.75s7.31-6.36,12.01-8.36c4.7-2,9.71-3,15.05-3,9.39,0,17.02,2.75,22.89,8.25,5.87,5.5,9.62,13.03,11.26,22.6,2.21-4.64,4.57-8.09,7.1-10.38,2.53-2.28,6.85-4.89,12.97-7.81l53.15-24.5v23.86l-43.76,18.76c-6.54,2.84-11.22,5.33-14.03,7.46-2.81,2.13-4.7,4.74-5.66,7.84s-1.44,7.48-1.44,13.17v11.94h64.89v20.81H87.99Zm17.93-20.81h45.04v-12.88c0-24.56-7.58-36.85-22.73-36.85-9.11,0-15.1,3.21-17.98,9.64-2.88,6.43-4.32,14.78-4.32,25.08v15.02Z"/><path class="cls-2" d="m87.99,707.6h17.93v60.3h42.79v-55.92h17.93v55.92h49.41v-62h17.72v82.81H87.99v-81.11Z"/><path class="cls-2" d="m90.65,620.44l18.36,2.56c-3.98,10.39-5.98,19.49-5.98,27.32,0,5.27.84,9.87,2.51,13.82,1.67,3.95,4.02,7.01,7.04,9.18,3.02,2.17,6.56,3.26,10.62,3.26,6.33,0,11.17-2.22,14.51-6.67,3.34-4.45,7.92-12.27,13.71-23.48,5.8-11.21,11.67-19.62,17.61-25.24,5.94-5.62,13.82-8.43,23.64-8.43,8.54,0,16.19,2.06,22.94,6.19,6.76,4.13,11.95,9.98,15.58,17.56,3.63,7.58,5.44,16.27,5.44,26.09,0,11.6-1.92,22.66-5.76,33.19l-19.64-2.14c5.12-10.74,7.68-20.28,7.68-28.6,0-5.9-.99-11.15-2.99-15.74-1.99-4.59-4.86-8.11-8.59-10.57-3.73-2.45-8.13-3.68-13.18-3.68-7.26,0-12.75,2.45-16.49,7.36-3.74,4.91-8.16,12.7-13.29,23.37-5.12,10.67-10.44,18.75-15.95,24.23-5.51,5.48-13.29,8.22-23.32,8.22-7.83,0-14.74-1.9-20.76-5.71s-10.69-9.21-14.03-16.22c-3.34-7.01-5.02-14.99-5.02-23.96,0-11.31,1.78-21.95,5.34-31.91Z"/><path class="cls-2" d="m87.99,519.42h17.93v60.3h42.79v-55.92h17.93v55.92h49.41v-62.01h17.72v82.81H87.99v-81.11Z"/><path class="cls-2" d="m87.99,434.35l145.78-63.13v23.46l-36.93,15.25v70.81l36.93,15.04v22.5l-145.78-62.07v-21.86Zm91.14-17.17l-40.66,16.74c-7.75,3.34-13.86,5.83-18.3,7.47-4.45,1.64-9.19,3.09-14.25,4.37,3.91,1.07,7.81,2.33,11.69,3.79,3.88,1.46,10.98,4.28,21.29,8.48l40.23,16.1v-56.95Z"/><path class="cls-2" d="m87.99,366.67v-34.95c0-8.74.27-15.29.8-19.66.53-4.37,1.58-8.79,3.15-13.27,1.64-4.93,4.11-9.18,7.42-12.75,3.31-3.57,7.31-6.36,12.01-8.36s9.71-3,15.05-3c9.39,0,17.02,2.75,22.89,8.25,5.87,5.5,9.62,13.03,11.26,22.6,2.21-4.64,4.57-8.09,7.1-10.38,2.53-2.28,6.85-4.89,12.97-7.81l53.15-24.5v23.86l-43.76,18.76c-6.54,2.84-11.22,5.33-14.03,7.46-2.81,2.13-4.7,4.74-5.66,7.84s-1.44,7.48-1.44,13.17v11.94h64.89v20.81H87.99Zm17.93-20.81h45.04v-12.89c0-24.56-7.58-36.85-22.73-36.85-9.11,0-15.1,3.21-17.98,9.64-2.88,6.43-4.32,14.78-4.32,25.08v15.02Z"/><path class="cls-2" d="m93.43,153.16l19.96,1.71c-3.2,5.48-5.42,10.49-6.67,15.05-1.24,4.55-1.87,9.68-1.87,15.37,0,8.04,1.3,15.42,3.9,22.14,2.6,6.72,6.35,12.58,11.26,17.55,4.91,4.98,10.73,8.82,17.45,11.53,6.72,2.7,14.14,4.06,22.25,4.06,10.67,0,20.33-2.44,28.97-7.31,8.64-4.87,15.41-11.6,20.28-20.17,4.87-8.57,7.31-18.16,7.31-28.76,0-9.89-2.17-20.28-6.51-31.16l20.06-1.6c1.85,5.69,3.15,10.87,3.9,15.53.75,4.66,1.12,10.19,1.12,16.6,0,15.3-2.95,28.94-8.86,40.93-5.91,11.99-14.5,21.36-25.77,28.12-11.28,6.76-24.63,10.14-40.07,10.14-14.09,0-26.68-3.22-37.78-9.66-11.1-6.44-19.74-15.51-25.93-27.21-6.19-11.7-9.28-24.92-9.28-39.65,0-12.73,2.1-23.8,6.3-33.19Z"/><path class="cls-2" d="m87.99,30.69h145.78v20.81h-66.91v70.54h66.91v20.81H87.99v-20.81h61.15V51.5h-61.15v-20.81Z"/><path class="cls-3" d="m226.46,1270.24l-54.8,39.01,54.64,39.82-39.41,54.19-55.3-39.67-19.84,65.32-63.36-22.28,19.45-64.88L0,1343.44v-68.28l66.64-.28-18.34-62.21,61.53-23.45,21.42,64.56,54.76-37.96,40.44,54.43Zm-44.14,104.62l15.5-21.31-61.06-44.5,60.91-43.36-16.24-21.86-60.94,42.25-23.29-70.2-23.97,9.13,20.68,70.16-73.49.31v27.04l75.05-1.86-21.93,73.18,24.89,8.75,21.93-72.19,61.97,44.46Z"/><path class="cls-1" d="m307.77,706.27c1.29,0,2.47-.1,3.53-.31,1.06-.21,1.95-.59,2.67-1.16.72-.57,1.29-1.33,1.71-2.29.41-.96.62-2.16.62-3.6,0-1.71-.56-3.24-1.67-4.61-1.11-1.37-2.83-2.05-5.15-2.05-1.24,0-2.31.17-3.22.5-.9.34-1.72.89-2.44,1.67-.72.78-1.38,1.8-1.98,3.06-.59,1.27-1.2,2.83-1.82,4.69-.83,2.48-1.73,4.62-2.71,6.43-.98,1.81-2.13,3.32-3.45,4.53-1.32,1.21-2.84,2.11-4.57,2.67-1.73.57-3.73.85-6.01.85-5.48,0-9.56-1.52-12.25-4.57-2.69-3.05-4.03-7.23-4.03-12.55,0-2.48.27-4.77.81-6.86s1.42-3.9,2.63-5.42c1.21-1.52,2.76-2.71,4.65-3.56s4.14-1.28,6.78-1.28h1.55v10.69c-2.63,0-4.66.46-6.08,1.39-1.42.93-2.13,2.48-2.13,4.65,0,1.24.18,2.27.54,3.1.36.83.84,1.49,1.43,1.98.59.49,1.28.83,2.05,1.01.78.18,1.58.27,2.4.27,1.71,0,3.14-.36,4.3-1.08,1.16-.72,2.23-2.27,3.22-4.65l3.72-8.6c.93-2.12,1.9-3.85,2.91-5.19,1.01-1.34,2.09-2.41,3.26-3.22,1.16-.8,2.44-1.36,3.84-1.67s2.94-.46,4.65-.46c5.84,0,10.09,1.69,12.75,5.08,2.66,3.38,3.99,8.1,3.99,14.14s-1.37,10.81-4.11,13.52c-2.74,2.71-6.66,4.07-11.78,4.07h-2.25v-11.16h1.63Z"/><path class="cls-1" d="m268.09,655.51c0-2.84.48-5.23,1.43-7.17s2.21-3.5,3.76-4.69,3.32-2.04,5.31-2.56c1.99-.52,4.02-.77,6.08-.77,2.84,0,5.32.43,7.44,1.28,2.12.85,3.85,2.04,5.19,3.56,1.34,1.53,2.35,3.37,3.02,5.54.67,2.17,1.01,4.57,1.01,7.21v5.97h22.09v11.16h-55.33v-19.53Zm25.03,3.41c0-2.22-.67-4.02-2.02-5.39-1.34-1.37-3.43-2.05-6.28-2.05s-4.91.59-6.35,1.78c-1.45,1.19-2.17,3.18-2.17,5.97v4.65h16.82v-4.96Z"/><path class="cls-1" d="m284.17,635.4c-3.54-.39-6.57-1.24-9.11-2.56-2.53-1.32-4.51-3.22-5.93-5.7-1.42-2.48-2.13-5.81-2.13-10s.71-7.52,2.13-10c1.42-2.48,3.4-4.38,5.93-5.7,2.53-1.32,5.57-2.17,9.11-2.56s7.4-.58,11.58-.58,8.11.19,11.62.58c3.51.39,6.54,1.24,9.07,2.56,2.53,1.32,4.47,3.22,5.81,5.7,1.34,2.48,2.02,5.81,2.02,10s-.67,7.52-2.02,10c-1.34,2.48-3.28,4.38-5.81,5.7-2.53,1.32-5.55,2.17-9.07,2.56-3.51.39-7.39.58-11.62.58s-8.05-.19-11.58-.58Zm21.08-10.85c2.61-.18,4.73-.54,6.35-1.09s2.82-1.32,3.57-2.32,1.12-2.34,1.12-3.99-.37-2.98-1.12-3.99-1.94-1.78-3.57-2.32-3.74-.9-6.35-1.08-5.77-.27-9.49-.27-6.87.09-9.45.27-4.7.54-6.36,1.08c-1.65.54-2.85,1.32-3.6,2.32s-1.12,2.34-1.12,3.99.38,2.98,1.12,3.99,1.95,1.78,3.6,2.32c1.65.54,3.77.91,6.36,1.09s5.73.27,9.45.27,6.88-.09,9.49-.27Z"/><path class="cls-1" d="m305.99,565.38v-.16h-37.9v-10.23h55.33v12.71l-38.75,13.64v.16h38.75v10.23h-55.33v-12.86l37.9-13.48Z"/><path class="cls-1" d="m307.77,538.26c1.29,0,2.47-.1,3.53-.31,1.06-.2,1.95-.59,2.67-1.16s1.29-1.33,1.71-2.29c.41-.96.62-2.16.62-3.6,0-1.71-.56-3.24-1.67-4.61-1.11-1.37-2.83-2.05-5.15-2.05-1.24,0-2.31.17-3.22.5-.9.34-1.72.89-2.44,1.67-.72.77-1.38,1.8-1.98,3.06-.59,1.27-1.2,2.83-1.82,4.69-.83,2.48-1.73,4.62-2.71,6.43-.98,1.81-2.13,3.32-3.45,4.53-1.32,1.21-2.84,2.11-4.57,2.67-1.73.57-3.73.85-6.01.85-5.48,0-9.56-1.52-12.25-4.57-2.69-3.05-4.03-7.23-4.03-12.56,0-2.48.27-4.77.81-6.86s1.42-3.9,2.63-5.42,2.76-2.71,4.65-3.57c1.89-.85,4.14-1.28,6.78-1.28h1.55v10.7c-2.63,0-4.66.46-6.08,1.39-1.42.93-2.13,2.48-2.13,4.65,0,1.24.18,2.27.54,3.1.36.83.84,1.49,1.43,1.98.59.49,1.28.83,2.05,1.01.78.18,1.58.27,2.4.27,1.71,0,3.14-.36,4.3-1.09,1.16-.72,2.23-2.27,3.22-4.65l3.72-8.6c.93-2.12,1.9-3.85,2.91-5.19,1.01-1.34,2.09-2.42,3.26-3.22s2.44-1.36,3.84-1.67c1.39-.31,2.94-.47,4.65-.47,5.84,0,10.09,1.69,12.75,5.08,2.66,3.38,3.99,8.1,3.99,14.14s-1.37,10.81-4.11,13.52c-2.74,2.71-6.66,4.07-11.78,4.07h-2.25v-11.16h1.63Z"/><path class="cls-1" d="m277.23,476.11v19.76h13.02v-18.6h9.14v18.6h14.88v-20.54h9.15v31.7h-55.33v-30.92h9.15Z"/><path class="cls-1" d="m268.09,449.14c0-4.65,1.18-8.27,3.53-10.85,2.35-2.58,5.93-3.87,10.73-3.87,3.72,0,6.76.75,9.11,2.25,2.35,1.5,3.86,3.82,4.53,6.97h.16c.41-2.79,1.32-4.83,2.71-6.12s3.64-2.09,6.74-2.4c1.03-.1,2.16-.18,3.37-.23,1.21-.05,2.57-.1,4.07-.16,2.94-.1,5.19-.26,6.74-.47,1.55-.31,2.61-.98,3.18-2.02h.47v12.09c-.77.57-1.67.93-2.67,1.08-1.01.16-2.05.26-3.14.31l-10.62.31c-2.17.1-3.88.65-5.12,1.63-1.24.98-1.86,2.63-1.86,4.96v5.97h23.4v11.16h-55.33v-20.61Zm24.18,4.81c0-2.69-.63-4.75-1.9-6.2-1.27-1.44-3.4-2.17-6.39-2.17-5.12,0-7.67,2.58-7.67,7.75v5.27h15.96v-4.65Z"/><path class="cls-1" d="m277.23,395.75v19.76h13.02v-18.6h9.14v18.6h14.88v-20.54h9.15v31.7h-55.33v-30.92h9.15Z"/><path class="cls-1" d="m268.09,370.56c0-3.88.63-7,1.9-9.38,1.27-2.38,3.07-4.22,5.42-5.54,2.35-1.32,5.18-2.21,8.49-2.67,3.31-.47,7-.7,11.08-.7,4.86,0,9.08.3,12.67.89,3.59.59,6.55,1.62,8.87,3.06,2.33,1.45,4.06,3.38,5.19,5.81,1.14,2.43,1.71,5.5,1.71,9.22v17.59h-55.33v-18.29Zm47.12,2.17c0-1.96-.34-3.54-1.01-4.73-.67-1.19-1.78-2.13-3.33-2.83s-3.59-1.16-6.12-1.39c-2.53-.23-5.68-.35-9.46-.35-3.15,0-5.91.1-8.29.31-2.38.21-4.35.63-5.93,1.28s-2.76,1.6-3.57,2.87c-.8,1.27-1.2,2.96-1.2,5.08v4.73h38.9v-4.96Z"/><path class="cls-1" d="m268.09,307.64c0-2.27.23-4.38.7-6.32.47-1.94,1.24-3.6,2.33-5,1.08-1.39,2.53-2.48,4.34-3.26,1.81-.78,4.03-1.16,6.66-1.16,3,0,5.57.7,7.71,2.09,2.15,1.39,3.6,3.49,4.38,6.28h.16c.41-3.1,1.73-5.55,3.95-7.36,2.22-1.81,5.19-2.71,8.91-2.71,2.17,0,4.24.28,6.2.85,1.96.57,3.68,1.54,5.15,2.91,1.47,1.37,2.65,3.15,3.53,5.35.88,2.2,1.32,4.92,1.32,8.18v18.83h-55.33v-18.68Zm22.71,4.34c0-3.1-.56-5.36-1.67-6.78-1.11-1.42-2.98-2.13-5.62-2.13s-4.5.65-5.58,1.94c-1.08,1.29-1.63,3.33-1.63,6.12v4.03h14.49v-3.18Zm24.41-1.16c0-2.69-.59-4.86-1.78-6.51-1.19-1.65-3.38-2.48-6.59-2.48-1.6,0-2.93.22-3.99.66-1.06.44-1.91,1.03-2.56,1.78-.64.75-1.1,1.64-1.36,2.67-.26,1.03-.39,2.17-.39,3.41v4.81h16.66v-4.34Z"/><path class="cls-1" d="m289.48,267.03v-.16l-21.39-7.75v-12.09l33.56,14.34h21.78v11.16h-21.78l-33.56,14.34v-12.55l21.39-7.28Z"/><path class="cls-1" d="m277.97,202.13c-1.83.96-2.75,2.7-2.75,5.23,0,1.39.38,2.54,1.12,3.45.75.91,1.96,1.62,3.64,2.13,1.68.52,3.87.88,6.59,1.09,2.71.21,6.03.31,9.96.31,4.18,0,7.57-.14,10.15-.43,2.58-.28,4.58-.72,6.01-1.32,1.42-.59,2.38-1.34,2.87-2.25.49-.9.74-1.95.74-3.14,0-.98-.17-1.9-.5-2.75-.33-.85-1.01-1.59-2.01-2.21-1.01-.62-2.43-1.11-4.26-1.47-1.83-.36-4.25-.54-7.24-.54v-11.16c3,0,5.84.23,8.52.7,2.69.47,5.04,1.33,7.05,2.6,2.02,1.27,3.59,3.05,4.73,5.35s1.71,5.28,1.71,8.95c0,4.18-.67,7.52-2.02,10-1.34,2.48-3.28,4.38-5.81,5.69-2.53,1.32-5.55,2.17-9.07,2.56-3.51.39-7.39.58-11.62.58s-8.05-.19-11.58-.58-6.57-1.24-9.11-2.56c-2.53-1.32-4.51-3.22-5.93-5.69-1.42-2.48-2.13-5.81-2.13-10s.65-7.12,1.94-9.42c1.29-2.3,2.93-4.02,4.92-5.15,1.99-1.14,4.13-1.85,6.43-2.13,2.3-.28,4.46-.43,6.47-.43v11.16c-4.03,0-6.96.48-8.8,1.43Z"/><path class="cls-1" d="m309.01,166.6v-.23l-40.92-8.21v-11.55l55.33,12.71v14.34l-55.33,12.71v-11.93l40.92-7.83Z"/><path class="cls-1" d="m277.23,111.57v19.76h13.02v-18.6h9.14v18.6h14.88v-20.54h9.15v31.7h-55.33v-30.92h9.15Z"/><path class="cls-1" d="m305.99,78.87v-.15h-37.9v-10.23h55.33v12.71l-38.75,13.64v.16h38.75v10.23h-55.33v-12.86l37.9-13.49Z"/><path class="cls-1" d="m277.23,28.35v12.09h46.19v11.16h-46.19v12.09h-9.15V28.35h9.15Z"/></svg>