<?xml version="1.0" encoding="UTF-8"?><svg id="Layer_1" xmlns="http://www.w3.org/2000/svg" viewBox="0 0 365.48 1428.91"><defs><style>.cls-1{fill:#94a4a5;}.cls-1,.cls-2,.cls-3{stroke-width:0px;}.cls-2{fill:#1d1d1b;}.cls-3{fill:#aeaeae;}</style></defs><path class="cls-2" d="m253.93,1118.52v29.26H109.13v-29.26h144.8Z"/><path class="cls-2" d="m224.68,992.84l25.55-1.06c3.18,12.01,4.77,23,4.77,32.97,0,11.31-1.48,21.77-4.45,31.38-2.97,9.61-7.51,18.07-13.62,25.39-6.11,7.31-13.69,12.93-22.74,16.85-9.05,3.92-19.47,5.88-31.27,5.88s-22.37-1.77-31.69-5.3c-9.33-3.53-17.23-8.67-23.69-15.42-6.47-6.75-11.32-14.86-14.57-24.33-3.25-9.47-4.88-20.07-4.88-31.8,0-10.46,2.08-22.12,6.25-34.98l24.8,2.33c-5.23,9.54-7.84,19.89-7.84,31.06,0,9.47,2.03,17.81,6.09,25.02,4.06,7.21,9.74,12.74,17.01,16.59,7.28,3.85,15.65,5.78,25.12,5.78s18.66-2.03,26.5-6.09c7.85-4.06,13.92-9.84,18.23-17.33,4.31-7.49,6.47-16.25,6.47-26.29s-2.01-19.75-6.04-30.64Z"/><path class="cls-2" d="m230.3,898.22h23.64v86.61H109.13v-85.76h23.85v56.5h34.98v-51.73h23.64v51.73h38.69v-57.35Z"/><path class="cls-2" d="m109.13,884.33v-34.72c0-8.68.27-15.19.8-19.53.53-4.34,1.57-8.73,3.13-13.18,1.63-4.9,4.08-9.12,7.37-12.67,3.29-3.55,7.26-6.32,11.93-8.3,4.66-1.99,9.65-2.98,14.95-2.98,9.33,0,16.91,2.73,22.74,8.19,5.83,5.46,9.56,12.94,11.18,22.44,2.19-4.6,4.54-8.04,7.05-10.31,2.51-2.27,6.8-4.85,12.88-7.76l52.79-24.34v23.7l-43.46,18.64c-6.5,2.82-11.15,5.3-13.94,7.41-2.79,2.12-4.66,4.71-5.62,7.78-.95,3.07-1.43,7.43-1.43,13.08v11.86h64.45v20.67H109.13Zm17.81-20.67h44.73v-12.8c0-24.4-7.53-36.6-22.58-36.6-9.05,0-15,3.19-17.86,9.57-2.86,6.38-4.29,14.69-4.29,24.91v14.91Z"/><path class="cls-2" d="m109.13,692.4h17.81v59.89h42.51v-55.55h17.81v55.55h49.08v-61.59h17.6v82.26H109.13v-80.56Z"/><path class="cls-2" d="m111.78,605.83l18.23,2.54c-3.96,10.32-5.94,19.36-5.94,27.14,0,5.23.83,9.81,2.49,13.73,1.66,3.92,3.99,6.96,7,9.12,3,2.16,6.52,3.23,10.55,3.23,6.29,0,11.1-2.21,14.42-6.63,3.32-4.42,7.86-12.19,13.62-23.32,5.76-11.13,11.59-19.49,17.49-25.07,5.9-5.58,13.73-8.37,23.48-8.37,8.48,0,16.08,2.05,22.79,6.15,6.71,4.1,11.87,9.91,15.48,17.44,3.6,7.53,5.4,16.17,5.4,25.92,0,11.52-1.91,22.51-5.72,32.97l-19.5-2.12c5.09-10.67,7.63-20.14,7.63-28.41,0-5.86-.99-11.08-2.97-15.64-1.98-4.56-4.82-8.06-8.53-10.49-3.71-2.44-8.07-3.66-13.09-3.66-7.21,0-12.67,2.44-16.38,7.31-3.71,4.88-8.11,12.61-13.2,23.21-5.09,10.6-10.37,18.62-15.85,24.06-5.48,5.44-13.2,8.16-23.16,8.16-7.77,0-14.65-1.89-20.62-5.67s-10.62-9.15-13.94-16.11c-3.32-6.96-4.98-14.89-4.98-23.8,0-11.24,1.77-21.8,5.3-31.69Z"/><path class="cls-2" d="m109.13,505.49h17.81v59.89h42.51v-55.55h17.81v55.55h49.08v-61.59h17.6v82.26H109.13v-80.56Z"/><path class="cls-2" d="m109.13,421l144.8-62.71v23.3l-36.68,15.15v70.33l36.68,14.94v22.35l-144.8-61.65v-21.71Zm90.53-17.05l-40.39,16.63c-7.7,3.32-13.76,5.79-18.18,7.42-4.42,1.62-9.13,3.07-14.15,4.34,3.89,1.06,7.76,2.31,11.61,3.76,3.85,1.45,10.9,4.25,21.15,8.42l39.96,15.99v-56.56Z"/><path class="cls-2" d="m109.13,353.77v-34.72c0-8.68.27-15.19.8-19.53.53-4.34,1.57-8.73,3.13-13.18,1.63-4.9,4.08-9.12,7.37-12.67,3.29-3.55,7.26-6.32,11.93-8.3s9.65-2.98,14.95-2.98c9.33,0,16.91,2.73,22.74,8.19,5.83,5.46,9.56,12.94,11.18,22.44,2.19-4.6,4.54-8.04,7.05-10.31,2.51-2.27,6.8-4.85,12.88-7.76l52.79-24.34v23.7l-43.46,18.64c-6.5,2.82-11.15,5.29-13.94,7.41-2.79,2.12-4.66,4.71-5.62,7.78-.95,3.07-1.43,7.43-1.43,13.08v11.86h64.45v20.67H109.13Zm17.81-20.67h44.73v-12.8c0-24.4-7.53-36.6-22.58-36.6-9.05,0-15,3.19-17.86,9.57-2.86,6.38-4.29,14.68-4.29,24.91v14.92Z"/><path class="cls-2" d="m114.54,141.69l19.82,1.7c-3.18,5.44-5.39,10.42-6.63,14.95-1.24,4.52-1.85,9.61-1.85,15.26,0,7.99,1.29,15.32,3.87,22,2.58,6.68,6.31,12.49,11.18,17.44,4.88,4.95,10.65,8.76,17.33,11.45,6.68,2.69,14.04,4.03,22.1,4.03,10.6,0,20.19-2.42,28.78-7.26,8.59-4.84,15.3-11.52,20.14-20.03,4.84-8.52,7.26-18.04,7.26-28.57,0-9.82-2.15-20.14-6.47-30.95l19.93-1.59c1.84,5.66,3.13,10.8,3.87,15.42.74,4.63,1.11,10.12,1.11,16.48,0,15.2-2.93,28.75-8.8,40.65-5.87,11.91-14.4,21.22-25.6,27.93-11.2,6.72-24.47,10.07-39.8,10.07-13.99,0-26.5-3.2-37.53-9.59-11.02-6.39-19.61-15.4-25.76-27.03-6.15-11.62-9.22-24.75-9.22-39.38,0-12.65,2.09-23.64,6.25-32.97Z"/><path class="cls-2" d="m109.13,20.04h144.8v20.67h-66.46v70.07h66.46v20.67H109.13v-20.67h60.74V40.71h-60.74v-20.67Z"/><path class="cls-3" d="m246.67,1251.27l-54.43,38.75,54.28,39.55-39.15,53.83-54.93-39.41-19.71,64.88-62.93-22.13,19.31-64.44-67.38,1.67v-67.82l66.19-.28-18.22-61.79,61.12-23.29,21.28,64.12,54.39-37.71,40.16,54.06Zm-43.85,103.92l15.39-21.17-60.65-44.2,60.5-43.07-16.13-21.71-60.53,41.96-23.14-69.73-23.81,9.07,20.54,69.69-73,.31v26.86l74.55-1.85-21.79,72.69,24.72,8.69,21.78-71.7,61.55,44.16Z"/><path class="cls-1" d="m327.52,692.22c1.27,0,2.43-.1,3.47-.3,1.04-.2,1.92-.58,2.63-1.14.71-.56,1.27-1.31,1.68-2.25.41-.94.61-2.12.61-3.54,0-1.68-.55-3.19-1.64-4.53-1.09-1.34-2.78-2.02-5.06-2.02-1.22,0-2.27.17-3.16.49-.89.33-1.69.88-2.4,1.64-.71.76-1.36,1.76-1.94,3.01-.58,1.24-1.18,2.78-1.79,4.61-.81,2.44-1.7,4.54-2.67,6.32-.96,1.78-2.09,3.26-3.39,4.46-1.29,1.19-2.79,2.07-4.49,2.63-1.7.56-3.67.84-5.9.84-5.38,0-9.39-1.5-12.03-4.49-2.64-2.99-3.96-7.11-3.96-12.34,0-2.44.27-4.68.8-6.74.53-2.06,1.4-3.83,2.59-5.33,1.19-1.5,2.72-2.67,4.57-3.5,1.85-.84,4.07-1.26,6.66-1.26h1.52v10.51c-2.59,0-4.58.46-5.98,1.37-1.4.91-2.09,2.44-2.09,4.57,0,1.22.18,2.24.53,3.05.36.81.83,1.46,1.41,1.94.58.48,1.26.81,2.02.99.76.18,1.55.27,2.36.27,1.68,0,3.08-.35,4.23-1.07,1.14-.71,2.2-2.23,3.16-4.57l3.66-8.45c.91-2.08,1.87-3.78,2.86-5.1.99-1.32,2.06-2.37,3.2-3.16,1.14-.79,2.4-1.33,3.77-1.64,1.37-.3,2.89-.46,4.57-.46,5.74,0,9.91,1.66,12.53,4.99,2.62,3.33,3.92,7.96,3.92,13.9s-1.34,10.62-4.04,13.29c-2.69,2.67-6.55,4-11.58,4h-2.21v-10.97h1.6Z"/><path class="cls-1" d="m288.53,642.34c0-2.79.47-5.14,1.41-7.04.94-1.9,2.17-3.44,3.69-4.61,1.52-1.17,3.26-2.01,5.22-2.51,1.96-.51,3.95-.76,5.98-.76,2.79,0,5.23.42,7.31,1.26,2.08.84,3.78,2.01,5.1,3.5,1.32,1.5,2.31,3.31,2.97,5.45.66,2.13.99,4.49.99,7.08v5.86h21.7v10.97h-54.38v-19.19Zm24.6,3.35c0-2.18-.66-3.95-1.98-5.29-1.32-1.34-3.38-2.02-6.17-2.02s-4.82.58-6.24,1.75c-1.42,1.17-2.13,3.12-2.13,5.86v4.57h16.53v-4.87Z"/><path class="cls-1" d="m304.33,622.57c-3.48-.38-6.46-1.22-8.95-2.51-2.49-1.29-4.43-3.16-5.83-5.6-1.4-2.44-2.09-5.71-2.09-9.82s.7-7.39,2.09-9.82c1.4-2.44,3.34-4.3,5.83-5.6,2.49-1.29,5.47-2.13,8.95-2.51,3.48-.38,7.27-.57,11.39-.57s7.97.19,11.42.57c3.45.38,6.42,1.22,8.91,2.51,2.49,1.3,4.39,3.16,5.71,5.6,1.32,2.44,1.98,5.71,1.98,9.82s-.66,7.39-1.98,9.82c-1.32,2.44-3.22,4.3-5.71,5.6-2.49,1.3-5.46,2.13-8.91,2.51-3.45.38-7.26.57-11.42.57s-7.91-.19-11.39-.57Zm20.71-10.66c2.56-.18,4.65-.53,6.24-1.07,1.6-.53,2.77-1.3,3.5-2.28.74-.99,1.1-2.3,1.1-3.92s-.37-2.93-1.1-3.92c-.74-.99-1.9-1.75-3.5-2.28-1.6-.53-3.68-.89-6.24-1.07-2.56-.18-5.67-.27-9.33-.27s-6.75.09-9.29.27c-2.54.18-4.62.53-6.24,1.07-1.62.53-2.8,1.29-3.54,2.28-.74.99-1.1,2.3-1.1,3.92s.37,2.93,1.1,3.92c.74.99,1.92,1.75,3.54,2.28,1.63.53,3.71.89,6.24,1.07,2.54.18,5.64.27,9.29.27s6.77-.09,9.33-.27Z"/><path class="cls-1" d="m325.77,553.77v-.15h-37.24v-10.05h54.38v12.49l-38.08,13.4v.15h38.08v10.05h-54.38v-12.64l37.24-13.25Z"/><path class="cls-1" d="m327.52,527.11c1.27,0,2.43-.1,3.47-.3,1.04-.2,1.92-.58,2.63-1.14.71-.56,1.27-1.31,1.68-2.25.41-.94.61-2.12.61-3.54,0-1.68-.55-3.19-1.64-4.53-1.09-1.35-2.78-2.02-5.06-2.02-1.22,0-2.27.17-3.16.5-.89.33-1.69.88-2.4,1.64-.71.76-1.36,1.76-1.94,3.01-.58,1.24-1.18,2.78-1.79,4.61-.81,2.44-1.7,4.54-2.67,6.32-.96,1.78-2.09,3.26-3.39,4.45-1.29,1.19-2.79,2.07-4.49,2.63-1.7.56-3.67.84-5.9.84-5.38,0-9.39-1.5-12.03-4.49-2.64-3-3.96-7.11-3.96-12.34,0-2.44.27-4.68.8-6.74.53-2.06,1.4-3.83,2.59-5.33,1.19-1.5,2.72-2.67,4.57-3.5,1.85-.84,4.07-1.26,6.66-1.26h1.52v10.51c-2.59,0-4.58.46-5.98,1.37-1.4.91-2.09,2.44-2.09,4.57,0,1.22.18,2.23.53,3.05.36.81.83,1.46,1.41,1.94.58.48,1.26.81,2.02.99.76.18,1.55.27,2.36.27,1.68,0,3.08-.35,4.23-1.07,1.14-.71,2.2-2.23,3.16-4.57l3.66-8.45c.91-2.08,1.87-3.78,2.86-5.1.99-1.32,2.06-2.37,3.2-3.16,1.14-.79,2.4-1.33,3.77-1.64,1.37-.3,2.89-.46,4.57-.46,5.74,0,9.91,1.66,12.53,4.99,2.62,3.33,3.92,7.96,3.92,13.9s-1.34,10.62-4.04,13.29c-2.69,2.67-6.55,4-11.58,4h-2.21v-10.97h1.6Z"/><path class="cls-1" d="m304.33,496.99c-3.48-.38-6.46-1.22-8.95-2.51-2.49-1.29-4.43-3.16-5.83-5.6-1.4-2.44-2.09-5.71-2.09-9.82s.7-7.39,2.09-9.82c1.4-2.44,3.34-4.3,5.83-5.6,2.49-1.29,5.47-2.13,8.95-2.51,3.48-.38,7.27-.57,11.39-.57s7.97.19,11.42.57c3.45.38,6.42,1.22,8.91,2.51,2.49,1.3,4.39,3.16,5.71,5.6,1.32,2.44,1.98,5.71,1.98,9.82s-.66,7.39-1.98,9.82c-1.32,2.44-3.22,4.3-5.71,5.6-2.49,1.3-5.46,2.13-8.91,2.51-3.45.38-7.26.57-11.42.57s-7.91-.19-11.39-.57Zm20.71-10.66c2.56-.18,4.65-.53,6.24-1.07,1.6-.53,2.77-1.3,3.5-2.28.74-.99,1.1-2.3,1.1-3.92s-.37-2.93-1.1-3.92c-.74-.99-1.9-1.75-3.5-2.28-1.6-.53-3.68-.89-6.24-1.07-2.56-.18-5.67-.27-9.33-.27s-6.75.09-9.29.27c-2.54.18-4.62.53-6.24,1.07-1.62.53-2.8,1.29-3.54,2.28-.74.99-1.1,2.3-1.1,3.92s.37,2.93,1.1,3.92c.74.99,1.92,1.75,3.54,2.28,1.63.53,3.71.89,6.24,1.07,2.54.18,5.64.27,9.29.27s6.77-.09,9.33-.27Z"/><path class="cls-1" d="m288.53,433.82c0-4.57,1.16-8.12,3.47-10.66,2.31-2.54,5.83-3.81,10.55-3.81,3.66,0,6.64.74,8.95,2.21,2.31,1.47,3.8,3.76,4.46,6.85h.15c.41-2.74,1.29-4.75,2.67-6.02,1.37-1.27,3.58-2.06,6.63-2.36,1.02-.1,2.12-.18,3.31-.23,1.19-.05,2.53-.1,4-.15,2.89-.1,5.1-.25,6.63-.46,1.52-.31,2.56-.96,3.12-1.98h.46v11.88c-.76.56-1.64.91-2.63,1.07-.99.15-2.02.25-3.08.3l-10.43.3c-2.13.1-3.81.64-5.03,1.6-1.22.96-1.83,2.59-1.83,4.87v5.86h23v10.97h-54.38v-20.26Zm23.76,4.72c0-2.64-.62-4.67-1.87-6.09-1.24-1.42-3.34-2.13-6.28-2.13-5.03,0-7.54,2.54-7.54,7.62v5.18h15.69v-4.57Z"/><path class="cls-1" d="m297.51,381.35v19.42h12.79v-18.28h8.99v18.28h14.62v-20.18h8.99v31.15h-54.38v-30.39h8.99Z"/><path class="cls-1" d="m288.53,356.6c0-3.81.62-6.88,1.87-9.21,1.24-2.33,3.02-4.15,5.33-5.45,2.31-1.29,5.09-2.17,8.34-2.63,3.25-.46,6.88-.69,10.89-.69,4.77,0,8.92.29,12.45.88,3.53.58,6.44,1.59,8.72,3.01,2.28,1.42,3.99,3.33,5.1,5.71,1.12,2.39,1.68,5.41,1.68,9.06v17.29h-54.38v-17.97Zm46.3,2.13c0-1.93-.33-3.48-.99-4.65-.66-1.17-1.75-2.09-3.27-2.78-1.52-.69-3.53-1.14-6.02-1.37-2.49-.23-5.58-.34-9.29-.34-3.1,0-5.81.1-8.15.3-2.33.2-4.28.62-5.83,1.26-1.55.63-2.72,1.57-3.5,2.82-.79,1.24-1.18,2.91-1.18,4.99v4.65h38.23v-4.87Z"/><path class="cls-1" d="m288.53,294.76c0-2.23.23-4.3.69-6.21.46-1.9,1.22-3.54,2.28-4.91s2.49-2.44,4.26-3.2c1.78-.76,3.96-1.14,6.55-1.14,2.94,0,5.47.69,7.58,2.06,2.11,1.37,3.54,3.43,4.3,6.17h.15c.41-3.05,1.7-5.46,3.88-7.23,2.18-1.78,5.1-2.67,8.76-2.67,2.13,0,4.16.28,6.09.84,1.93.56,3.62,1.51,5.06,2.86,1.45,1.35,2.6,3.1,3.47,5.26.86,2.16,1.29,4.84,1.29,8.03v18.51h-54.38v-18.35Zm22.31,4.26c0-3.05-.54-5.27-1.64-6.66-1.09-1.4-2.93-2.09-5.52-2.09s-4.42.64-5.48,1.9c-1.07,1.27-1.6,3.27-1.6,6.02v3.96h14.24v-3.12Zm23.99-1.14c0-2.64-.58-4.77-1.75-6.4-1.17-1.62-3.32-2.44-6.47-2.44-1.57,0-2.88.22-3.92.65-1.04.43-1.88,1.02-2.51,1.75-.63.74-1.08,1.61-1.33,2.63-.25,1.02-.38,2.13-.38,3.35v4.72h16.37v-4.27Z"/><path class="cls-1" d="m309.55,254.85v-.15l-21.02-7.62v-11.88l32.98,14.09h21.4v10.97h-21.4l-32.98,14.09v-12.34l21.02-7.16Z"/><path class="cls-1" d="m298.24,191.08c-1.8.94-2.7,2.65-2.7,5.14,0,1.37.37,2.5,1.1,3.39.74.89,1.93,1.59,3.58,2.09,1.65.51,3.81.86,6.47,1.07,2.67.2,5.93.3,9.79.3,4.11,0,7.44-.14,9.98-.42,2.54-.28,4.51-.71,5.9-1.29,1.4-.58,2.34-1.32,2.82-2.21.48-.89.72-1.92.72-3.08,0-.96-.16-1.87-.49-2.7-.33-.84-.99-1.56-1.98-2.17-.99-.61-2.39-1.09-4.19-1.45-1.8-.35-4.18-.53-7.12-.53v-10.97c2.95,0,5.74.23,8.38.69,2.64.46,4.95,1.31,6.93,2.55,1.98,1.24,3.53,3,4.65,5.26,1.12,2.26,1.68,5.19,1.68,8.8,0,4.11-.66,7.39-1.98,9.82-1.32,2.44-3.22,4.3-5.71,5.6-2.49,1.3-5.46,2.13-8.91,2.51-3.45.38-7.26.57-11.42.57s-7.91-.19-11.39-.57c-3.48-.38-6.46-1.22-8.95-2.51-2.49-1.29-4.43-3.16-5.83-5.6-1.4-2.44-2.09-5.71-2.09-9.82s.64-6.99,1.9-9.25c1.27-2.26,2.88-3.95,4.84-5.06,1.96-1.12,4.06-1.82,6.32-2.09,2.26-.28,4.38-.42,6.36-.42v10.97c-3.96,0-6.84.47-8.64,1.41Z"/><path class="cls-1" d="m328.74,156.16v-.23l-40.21-8.07v-11.35l54.38,12.49v14.09l-54.38,12.49v-11.73l40.21-7.69Z"/><path class="cls-1" d="m297.51,102.09v19.42h12.79v-18.28h8.99v18.28h14.62v-20.18h8.99v31.15h-54.38v-30.39h8.99Z"/><path class="cls-1" d="m325.77,69.95v-.15h-37.24v-10.05h54.38v12.49l-38.08,13.4v.15h38.08v10.05h-54.38v-12.64l37.24-13.25Z"/><path class="cls-1" d="m297.51,20.3v11.88h45.39v10.97h-45.39v11.88h-8.99V20.3h8.99Z"/></svg>