<?xml version="1.0" encoding="UTF-8"?><svg id="Layer_1" xmlns="http://www.w3.org/2000/svg" viewBox="0 0 90.91 93.12"><defs><style>.cls-1{fill:#3ba73f;}.cls-1,.cls-2,.cls-3{stroke-width:0px;}.cls-2{fill:#3da9de;}.cls-3{fill:#e02a2c;}</style></defs><polygon class="cls-1" points="81.3 58.33 85.81 45.03 66.39 38.46 78.73 21.92 67.48 13.52 54.99 30.26 42.71 12.86 31.24 20.96 43.39 38.17 22.38 44.67 26.52 58.08 47.31 51.65 47.06 73.41 61.1 73.57 61.36 51.58 81.3 58.33"/><polygon class="cls-3" points="66.07 43.4 63.88 29.53 43.63 32.72 46.89 12.34 33.03 10.12 29.73 30.74 10.78 21.04 4.38 33.54 23.12 43.14 7.53 58.65 17.43 68.6 32.86 53.26 42.74 72.64 55.25 66.27 45.27 46.67 66.07 43.4"/><polygon class="cls-2" points="75.57 50.29 71.22 36.94 51.73 43.28 51.73 22.65 37.68 22.65 37.68 43.53 17.44 36.94 13.09 50.29 33.12 56.81 20.17 74.58 31.51 82.85 44.33 65.26 57.14 82.85 68.49 74.58 55.54 56.81 75.57 50.29"/></svg>